<svg version="1.1" xmlns="http://www.w3.org/2000/svg" style="display: block;" viewBox="0 0 2048 2048" width="1024" height="1024" preserveAspectRatio="xMidYMid meet">
<defs>
	<linearGradient id="Gradient1" gradientUnits="userSpaceOnUse" x1="1064.01" y1="1423.07" x2="927.734" y2="1338.13">
		<stop class="stop0" offset="0" stop-opacity="1" stop-color="rgb(0,0,0)"/>
		<stop class="stop1" offset="1" stop-opacity="1" stop-color="rgb(25,28,54)"/>
	</linearGradient>
</defs>
<path transform="translate(0,0)" fill="rgb(236,239,242)" d="M 0 0 L 2048 0 L 2048 2048 L 0 2048 L 0 0 z"/>
<path transform="translate(0,0)" fill="rgb(27,36,48)" d="M 489.232 457.5 C 553.892 432.569 619.082 405.171 683.519 379.473 L 1157.2 190.08 C 1168.68 194.808 1185.35 203.698 1197.13 209.369 L 1265.35 241.763 L 1442.96 326.58 C 1480.19 344.468 1523.67 366.417 1561.02 382.744 C 1561.39 411.205 1560.92 440.358 1560.96 468.919 C 1537.83 475.863 1496.1 493.843 1472.73 503.102 C 1475.84 504.556 1479 506.189 1482.08 507.734 C 1480.98 578.688 1495.8 629.837 1417.29 653.901 C 1413.12 655.177 1407.38 657.811 1403.18 659.458 L 1327.68 688.927 L 1058.73 792.979 C 1060.13 809.498 1058.15 818.718 1047.87 832.339 C 1061.05 864.342 1069.05 882.041 1049.73 913.681 C 1053.77 933.559 1069.54 941.518 1055.81 963.621 C 1054.77 965.299 1053.68 966.946 1052.54 968.56 C 1052.23 974.369 1051.9 979.753 1051.33 985.553 C 1065.6 1002.05 1061.45 1019.28 1050.89 1036.19 C 1058.83 1046.9 1063.18 1056.62 1061.91 1070.79 C 1061.31 1077.55 1055.63 1086.26 1055.19 1092.89 C 1053.71 1114.87 1054.98 1137.61 1054.76 1159.7 C 1054.69 1166.99 1055.05 1174.38 1054.62 1181.7 C 1054.27 1187.87 1047.73 1204.29 1050.49 1208.99 L 1052.61 1210.27 C 1088.67 1216.29 1075.8 1291.84 1078.79 1318.59 C 1101.29 1338.4 1111.09 1366.45 1113.3 1395.48 C 1114.11 1406.17 1114.99 1445.68 1111.75 1453.94 C 1100.19 1483.43 1102.36 1489.1 1104.93 1520.39 C 1106.83 1541.46 1108.33 1562.58 1109.42 1583.71 C 1110.71 1614.86 1107.93 1664.66 1111.34 1692.87 C 1111.56 1693.22 1111.78 1693.57 1112.01 1693.91 C 1118.69 1703.96 1129.31 1708.63 1137.32 1717.13 C 1149.79 1730.35 1150.24 1780.18 1146.76 1798.08 C 1144.58 1809.29 1139.96 1817.47 1130.42 1823.73 C 1112.61 1835.41 1081.76 1845.58 1061.14 1854.18 C 1045.18 1860.84 1029.21 1869.03 1012.82 1874.48 C 1005.84 1876.8 995.121 1880.3 987.778 1878.87 C 976.767 1876.73 910.518 1847.84 905.69 1840.93 C 903.069 1837.18 901.894 1831.93 901.341 1827.47 C 900.257 1818.72 900.673 1783.37 902.293 1775.15 C 902.835 1772.4 903.75 1769.95 905.192 1767.54 C 909.025 1761.15 914.641 1755.99 918.741 1749.8 C 922.187 1744.6 923.668 1737.98 927.956 1733.32 C 934.648 1726.05 943.345 1719.17 951.678 1713.9 C 965.824 1704.95 982.287 1699.89 997.086 1692.11 C 996.281 1662.11 993.269 1631.68 991.289 1601.77 C 990.758 1593.74 987.618 1562.5 988.574 1556.82 C 985.51 1554.01 978.383 1551.46 974.268 1549.72 C 973.836 1549.65 969.826 1548.02 969.136 1547.75 C 954.344 1542.23 956.949 1534.45 963.263 1523.03 C 972.469 1506.38 973.359 1493.88 973.172 1475.69 C 938.374 1466.19 961.985 1364.22 974.024 1343.61 C 976.774 1338.91 986.717 1327.99 990.79 1322.28 C 994.438 1287.12 977.663 1221.81 1017.78 1208.13 C 1011.08 1185.66 1010.23 1133.26 1018.26 1110.07 C 1005.39 1089.26 1008.92 1064.01 1023.25 1045 C 1009.61 1025.33 1007.32 1005.35 1019.29 983.97 C 1004.49 962.014 1011.19 931.86 1022.24 909.669 C 1006.43 889.851 1009.3 861.174 1019.5 839.417 C 1014.99 831.309 1013.07 825.735 1013.51 816.569 C 1013.59 813.614 1013.79 812.416 1012.93 809.534 C 1008.83 807.82 849.871 873.932 830.273 879.69 C 796.601 889.582 752.596 923.853 720.088 891.297 C 713.772 885.068 709.274 877.235 707.079 868.641 C 703.4 854.33 704.584 829.601 704.559 813.953 C 704.559 791.949 704.44 769.946 704.201 747.944 C 716.311 744.203 732.071 737.515 744.082 732.758 C 769.571 722.394 795.228 712.449 821.044 702.927 C 749.797 667.52 674.799 633.018 602.637 598.834 L 534.687 566.576 C 521.315 560.122 502.561 550.289 489.058 545.262 C 490.044 516.017 490.102 486.749 489.232 457.5 z"/>
<path transform="translate(0,0)" fill="rgb(236,239,242)" d="M 963.985 1387.81 L 965.718 1386.72 C 971.799 1390.29 982.832 1396.71 989.283 1398.8 C 1024.67 1410.28 1078.25 1408.23 1106.69 1381.89 C 1109.08 1395.23 1109.1 1405.91 1109.33 1419.36 C 1093.29 1430.47 1065.73 1431.37 1063.51 1452.06 C 1062.16 1464.55 1059.15 1475.52 1055.66 1487.51 C 1052.82 1503.67 1054.24 1539.49 1066.55 1551.74 C 1102.54 1587.54 1080.58 1633.28 1081.43 1677.23 C 1081.8 1696.69 1092.15 1693.72 1106.45 1688.28 C 1108.52 1698.36 1110.69 1699.97 1118.49 1706.77 C 1083.3 1711.38 1020.48 1759.25 992.531 1754.34 C 977.351 1751.67 953.139 1738.19 937.75 1731.9 C 958.317 1710.51 976.428 1708.67 1002.09 1694.94 C 1000.86 1668.86 999.131 1642.8 996.901 1616.79 C 995.353 1597.71 993.105 1576.32 992.779 1557.35 C 1026.05 1555.36 1026.92 1543.11 1024.13 1512.79 C 1022.73 1497.62 1025.2 1477.3 1008.22 1471.21 C 994.946 1469.09 989.409 1467.66 977.034 1462.49 L 960.861 1454.62 C 956.388 1444.54 961.981 1399.8 963.985 1387.81 z"/>
<path transform="translate(0,0)" fill="rgb(236,239,242)" d="M 995.641 1287.42 C 996.188 1274.1 991.464 1231.75 1004.14 1225.11 C 1010.52 1232.34 1010.27 1232.55 1020.24 1235.31 L 1021.58 1235.67 C 1031.9 1238.01 1041.13 1237.12 1051.38 1235.5 C 1058.94 1232.18 1060.27 1231.18 1065.44 1224.76 C 1080.07 1253.07 1069.87 1279.41 1073.84 1306.49 C 1073.6 1311.28 1073.42 1316.06 1073.3 1320.85 C 1058.84 1332.19 1046.48 1337.44 1027.59 1335.27 C 1016.28 1333.87 1005.43 1329.98 995.817 1323.88 C 995.483 1312.13 995.689 1299.26 995.641 1287.42 z"/>
<path transform="translate(0,0)" fill="rgb(236,239,242)" d="M 1094.74 1344.88 C 1100.73 1355.95 1102.51 1364.59 1105.76 1376.84 C 1080.84 1398.01 1052.45 1402.31 1020.45 1400.29 C 1005.48 1399.35 974.785 1392.15 965.914 1378.85 C 967.244 1376.13 974.752 1352.59 976.493 1347.84 C 992.633 1375.9 1051.89 1378.39 1076.98 1362.13 C 1084.95 1356.97 1087.6 1354.81 1093.15 1347.07 L 1094.74 1344.88 z"/>
<path transform="translate(0,0)" fill="rgb(236,239,242)" d="M 1075.04 1326.33 L 1075.35 1327.72 C 1076.9 1334.46 1077.52 1337.13 1082.48 1341.93 L 1088.41 1343.29 C 1089.13 1358.94 1048.52 1368.24 1036.05 1367.75 C 1022.63 1367.22 985.847 1362.49 982.931 1346.91 L 984.296 1345.53 C 989.492 1340.06 991.848 1335.8 994.503 1328.8 C 1026.17 1344.61 1044.61 1344.55 1075.04 1326.33 z"/>
<path transform="translate(0,0)" fill="rgb(217,114,31)" d="M 973.172 1475.69 C 975.308 1476.12 974.966 1476.56 976.603 1477.9 C 1009.57 1481.65 1002.35 1525.12 985.323 1542.34 C 981.584 1546.12 978.21 1546.12 973.132 1545.83 C 971.766 1546.46 970.465 1547.04 969.136 1547.75 C 954.344 1542.23 956.949 1534.45 963.263 1523.03 C 972.469 1506.38 973.359 1493.88 973.172 1475.69 z"/>
<path transform="translate(0,0)" fill="rgb(27,36,48)" d="M 973.172 1475.69 C 975.308 1476.12 974.966 1476.56 976.603 1477.9 C 979.629 1494.79 973.895 1509.81 966.688 1524.87 C 960.404 1538.01 958.133 1539.4 973.132 1545.83 C 971.766 1546.46 970.465 1547.04 969.136 1547.75 C 954.344 1542.23 956.949 1534.45 963.263 1523.03 C 972.469 1506.38 973.359 1493.88 973.172 1475.69 z"/>
<path transform="translate(0,0)" fill="url(#Gradient1)" d="M 1017.78 1208.13 L 1018.32 1213.78 C 1019.51 1218.21 1020.01 1222.69 1020.71 1227.21 L 1021.34 1229.74 C 1021.37 1231.26 1021.34 1234.31 1021.58 1235.67 L 1020.24 1235.31 C 1010.27 1232.55 1010.52 1232.34 1004.14 1225.11 C 991.464 1231.75 996.188 1274.1 995.641 1287.42 C 992.54 1300.86 997.716 1320.1 990.962 1330.74 L 989.879 1330.29 L 988.656 1331.15 L 988.58 1332.96 C 985.205 1336.22 982.598 1338.59 981.173 1343.06 L 984.296 1345.53 L 982.931 1346.91 C 980.983 1347.06 977.807 1346.94 976.493 1347.84 C 974.752 1352.59 967.244 1376.13 965.914 1378.85 C 963.766 1380.77 963.736 1384.96 963.985 1387.81 C 961.981 1399.8 956.388 1444.54 960.861 1454.62 C 961.573 1456.96 961.822 1458.62 963.486 1460.39 C 965.111 1463.62 966.81 1466.82 968.582 1469.97 C 981.907 1477.04 998.403 1476.59 1002.34 1493.41 C 1007.28 1514.51 999.35 1535.62 983.695 1549.54 C 978.833 1547.84 978.644 1546.63 974.268 1549.72 C 973.836 1549.65 969.826 1548.02 969.136 1547.75 C 970.465 1547.04 971.766 1546.46 973.132 1545.83 C 978.21 1546.12 981.584 1546.12 985.323 1542.34 C 1002.35 1525.12 1009.57 1481.65 976.603 1477.9 C 974.966 1476.56 975.308 1476.12 973.172 1475.69 C 938.374 1466.19 961.985 1364.22 974.024 1343.61 C 976.774 1338.91 986.717 1327.99 990.79 1322.28 C 994.438 1287.12 977.663 1221.81 1017.78 1208.13 z"/>
<path transform="translate(0,0)" fill="rgb(236,239,242)" d="M 1018.32 1213.78 C 1019.51 1218.21 1020.01 1222.69 1020.71 1227.21 C 1018.27 1234.5 1008.1 1224.12 1009.57 1220.02 C 1010.88 1216.39 1015.21 1214.88 1018.32 1213.78 z"/>
<path transform="translate(0,0)" fill="rgb(217,114,31)" d="M 963.486 1460.39 C 966.906 1462.19 970.347 1463.95 973.81 1465.67 C 985.76 1471.06 995.521 1473.82 1008.51 1475.94 C 1025.31 1481.97 1017.74 1514.37 1021.43 1529.51 C 1026.08 1548.6 997.603 1559.14 983.695 1549.54 C 999.35 1535.62 1007.28 1514.51 1002.34 1493.41 C 998.403 1476.59 981.907 1477.04 968.582 1469.97 C 966.81 1466.82 965.111 1463.62 963.486 1460.39 z"/>
<path transform="translate(0,0)" fill="rgb(139,147,184)" d="M 981.173 1343.06 C 982.598 1338.59 985.205 1336.22 988.58 1332.96 C 986.844 1337.67 985.608 1340.77 981.173 1343.06 z"/>
<path transform="translate(0,0)" fill="rgb(236,239,242)" d="M 498.594 543.892 C 511.355 536.634 552.617 521.425 567.938 515.189 L 728.29 450.714 L 1006.91 339.368 C 1057.12 319.218 1108.05 297.191 1158.82 278.588 C 1196.28 298.385 1235.15 315.567 1273.56 333.507 L 1431.77 408.875 C 1469.25 426.477 1515.36 446.731 1551.65 465.531 C 1535.97 474.251 1505.39 484.909 1487.48 491.884 L 1389.14 531.038 L 1389.1 492.585 C 1384.93 490.19 1380.47 488.014 1376.17 485.829 C 1354.21 493.217 1322.86 506.666 1300.47 515.318 L 1133.5 580.13 C 1117.92 586.172 1102.4 592.384 1086.95 598.766 C 1079.83 601.737 1061.99 609.677 1055.32 611.187 C 1054.53 607.712 1053.71 603.734 1052.71 600.348 C 1065.82 578.488 1063.4 571.503 1049.16 551.181 C 1055.44 541.389 1062.81 529.91 1059.82 517.731 C 1057.74 509.224 1046.16 493.811 1052.19 484.782 C 1060.22 472.755 1064.02 465.358 1060.16 449.962 C 1058.35 442.884 1055.41 436.148 1051.44 430.016 C 1045.57 438.531 1040.09 451.138 1035.58 460.749 C 1027.06 455.419 1020.8 451.829 1011.85 447.27 C 1011.33 466.009 1008.72 471.68 1018.85 486.947 C 1007.16 512.336 1008.73 526.716 1022.4 550.041 C 1007.12 567.916 1008.05 595.685 1020.07 615.02 C 1017.37 618.281 1013.91 622.918 1013.74 627.322 L 826.98 700.154 C 800.079 686.488 769.697 672.931 742.114 659.779 L 564.105 574.858 C 542.675 564.624 519.516 554.576 498.594 543.892 z"/>
<path transform="translate(0,0)" fill="rgb(236,239,242)" d="M 708.946 763.863 C 721.566 757.294 750.43 747.064 764.815 741.312 L 911.334 684.21 L 1384.46 499.019 C 1385.2 520.385 1384.1 542.705 1384.31 564.174 C 1384.57 590.644 1381.79 603.407 1397.68 626.15 C 1341.18 647.364 1283.91 670.231 1227.59 692.084 L 1055.87 758.728 C 1055.93 744.903 1055.88 731.077 1055.72 717.253 C 1055.87 713.442 1055.07 710.426 1057.72 707.738 C 1062.93 702.469 1077.5 702.15 1077.32 692.808 C 1076.72 661.384 1008.39 667.308 993.407 683.29 C 979.998 697.59 1002.65 705.966 1013.63 708.343 C 1013.72 717.868 1014.95 766.065 1012.94 771.457 C 997.237 775.899 965.538 789.344 948.883 795.597 L 789.473 856.398 C 773.074 862.601 732.397 878.933 718.029 881.841 C 706.737 863.275 708.87 842.5 708.873 821.649 L 708.946 763.863 z"/>
<path transform="translate(0,0)" fill="rgb(236,239,242)" d="M 1153.46 196.966 L 1154.45 197.33 C 1156.49 202.023 1155.88 264.254 1155.91 273.434 C 1131.46 284.23 1103.23 294.97 1078.15 305.002 L 968.203 349.241 L 663.855 471.244 C 610.513 492.494 548.278 516.049 496.471 539.151 L 494.919 538.858 C 492.917 534.412 494.566 470.42 495.06 460.276 C 507.52 456.607 535.77 444.199 549.475 438.743 L 679.257 386.411 L 1153.46 196.966 z"/>
<path transform="translate(0,0)" fill="rgb(236,239,242)" d="M 1160.03 196.908 C 1229.08 228.558 1298.84 263.872 1367.65 296.363 L 1488.35 353.551 C 1510.15 363.945 1535.34 375.313 1556.35 386.602 C 1556.75 392.861 1556.84 399.099 1556.99 405.369 C 1556.72 414.184 1556.06 444.446 1556.97 452.648 C 1556.83 456.212 1556.72 457.304 1556.1 460.81 L 1554.98 461.514 C 1423.13 399.707 1291.6 337.22 1160.4 274.056 C 1159.69 249.014 1160.08 222.093 1160.03 196.908 z"/>
<path transform="translate(0,0)" fill="rgb(236,239,242)" d="M 1402.06 630.375 C 1411.98 637.636 1416.78 639.216 1428.4 641.046 L 1432.24 640.975 L 1432.15 641.905 C 1430.7 642.605 1428.78 643.619 1427.33 644.19 C 1362.35 671.305 1293.82 696.686 1227.94 721.921 L 1056.46 788.532 C 1055.13 781.727 1055.42 771.174 1055.37 763.965 C 1059.71 761.642 1089.02 750.889 1096.01 748.163 L 1199.27 708.576 L 1334.37 656.207 C 1355.67 647.949 1380.67 637.419 1402.06 630.375 z"/>
<path transform="translate(0,0)" fill="rgb(236,239,242)" d="M 1475.82 513.043 L 1476.92 514.512 C 1477.42 527.007 1476.6 539.459 1477.19 552.574 C 1478.71 586.131 1476.63 628.36 1435.24 636.137 C 1423.65 638.314 1412.5 632.097 1403.3 624.866 C 1383.7 606.464 1388.93 571.418 1389.16 546.441 C 1415.86 537.5 1449.1 523.399 1475.82 513.043 z"/>
<path transform="translate(0,0)" fill="rgb(236,239,242)" d="M 722.435 886.948 C 785.016 862.402 850.958 838.285 914.051 814.267 L 978.988 789.496 C 988.45 785.86 1004.81 778.883 1013.72 776.388 C 1013.71 782.21 1013.43 791.856 1014 797.333 C 1013.61 798.757 1013.1 800.23 1012.65 801.643 C 1005.07 807.604 958.782 823.965 946.851 828.698 L 853.541 865.193 C 825.612 876.232 784.637 893.974 754.746 901.059 C 745.125 903.34 729.961 894.199 722.435 886.948 z"/>
<path transform="translate(0,0)" fill="rgb(236,239,242)" d="M 1108.85 1425.91 C 1114.42 1447.45 1097.04 1469.74 1098.54 1486.52 C 1104.45 1552.62 1105.56 1616.52 1106.11 1682.83 C 1083.08 1692.97 1084.85 1683.58 1086.69 1663.24 C 1089.33 1638.44 1097.44 1583.89 1082.99 1565.88 C 1054.84 1530.77 1053.98 1513.33 1064.87 1469.95 C 1070.77 1446.45 1065.78 1440.4 1096.38 1432.17 C 1098.91 1431.49 1106.15 1427.43 1108.85 1425.91 z"/>
<path transform="translate(0,0)" fill="rgb(236,239,242)" d="M 1114.89 1712.11 C 1136.49 1708.77 1140.29 1732.99 1143.09 1748.18 C 1118.96 1759.37 1093.51 1769.68 1069.05 1780.33 C 1050.98 1788.2 1033.4 1794.36 1015.58 1803.45 C 1008.44 1773.95 1003.75 1772.61 977.251 1760.45 C 970.834 1757.44 933.043 1741.11 930.698 1738.89 C 931.134 1738.06 932.471 1735.19 934.285 1735.72 C 951.473 1740.69 981.013 1759.52 998.332 1759.14 C 1018.89 1758.68 1056.78 1736.4 1075.86 1727.64 C 1088.56 1721.7 1101.59 1716.51 1114.89 1712.11 z"/>
<path transform="translate(0,0)" fill="rgb(236,239,242)" d="M 907.315 1772.72 C 910.404 1773.19 910.172 1773.67 913 1775 C 941.035 1788.22 970.835 1801.5 999.277 1813.79 C 998.04 1820.81 999.135 1865.18 999.467 1873.82 C 997.608 1874.06 989.833 1875.29 988.006 1874.71 C 962.775 1867 939.301 1851.77 914.414 1842.56 C 901.087 1837.64 905.609 1784.71 907.315 1772.72 z"/>
<path transform="translate(0,0)" fill="rgb(236,239,242)" d="M 1133.83 1758.03 C 1137.22 1771.56 1134.98 1805.61 1121.25 1813.21 C 1110.63 1819.08 1096.1 1824.8 1084.66 1829.75 C 1061.8 1839.67 1039 1849.76 1016.28 1860.02 C 1014.63 1847.35 1015.78 1822.34 1015.94 1808.55 C 1030.69 1800.63 1050.99 1792.89 1066.52 1786.48 L 1133.83 1758.03 z"/>
<path transform="translate(0,0)" fill="rgb(217,114,31)" d="M 1016.8 708.766 C 1030.05 710.71 1039.82 710.624 1052.98 708.629 C 1052.26 734.105 1053.73 760.887 1052.88 786.414 C 1052.25 805.27 1039.12 823.386 1025.38 835.636 L 1023.47 837.824 C 1014.11 829.47 1016.87 796.158 1016.89 783.387 C 1016.99 758.514 1016.96 733.639 1016.8 708.766 z"/>
<path transform="translate(0,0)" fill="rgb(236,239,242)" d="M 1057.26 615.692 C 1123.79 589.065 1190.51 562.899 1257.41 537.195 L 1342.87 504.209 C 1349.42 501.744 1378.05 486.691 1381.04 494.964 C 1375.18 498.926 1342.87 509.596 1334.77 512.813 L 1143.75 587.54 L 832.984 709.408 C 809.98 718.226 787.063 727.266 764.234 736.526 C 753.647 740.755 732.714 749.443 722.38 752.212 C 719.615 751.341 717.591 750.506 714.943 749.411 C 785.515 723.688 855.413 692.948 925.971 666.825 C 954.802 656.15 985.093 644.684 1013.25 632.544 C 1021.96 630.614 1047.93 619.469 1057.26 615.692 z"/>
<path transform="translate(0,0)" fill="rgb(217,114,31)" d="M 1023.95 1227.59 L 1023.89 1226.5 C 1022.14 1198.47 1004.26 1146.89 1026.43 1123.27 C 1035.7 1113.39 1043.1 1106.64 1051.03 1094.62 C 1051.37 1120.72 1053.49 1153.87 1051.26 1179.17 C 1049.9 1194.6 1045.31 1211.87 1043.37 1228.33 C 1043.12 1228.68 1041.94 1229.46 1041.53 1229.75 C 1035.64 1230.21 1028.42 1231.26 1023.95 1227.59 z"/>
<path transform="translate(0,0)" fill="rgb(236,239,242)" d="M 1022.5 675.172 C 1035.22 674.044 1067.81 673.577 1073.03 687.947 C 1077.33 699.765 1052.5 704.712 1046.21 705.869 C 1035.75 706.461 998.706 707.881 993.281 691.424 C 990.532 683.087 1015.43 676.556 1022.5 675.172 z"/>
<path transform="translate(0,0)" fill="rgb(27,36,48)" d="M 1031.68 679.395 C 1069.79 676.852 1087.01 700.993 1039.04 703.04 C 1032.63 703.13 1000.77 703.696 999.355 692.497 C 998.134 682.842 1023.75 680.28 1031.68 679.395 z"/>
<path transform="translate(0,0)" fill="rgb(217,114,31)" d="M 1023.29 683.347 C 1029.05 682.77 1046.3 681.808 1050.57 684.532 C 1052.36 685.674 1056.55 696.744 1046.92 698.876 C 1036.4 700.733 1029.24 700.609 1018.57 700.138 C 1017.56 693.183 1013.63 684.906 1021.4 683.745 L 1023.29 683.347 z"/>
<path transform="translate(0,0)" fill="rgb(236,239,242)" d="M 1012.1 685.832 C 1013.9 687.144 1014.42 696.393 1014.1 697.374 C 1013.4 697.793 1011.3 697.583 1010.49 697.562 L 1009.54 697.051 C 999.525 691.739 1003.74 690.093 1012.1 685.832 z"/>
<path transform="translate(0,0)" fill="rgb(236,239,242)" d="M 1055.39 685.178 C 1059.05 686.752 1064.63 688.859 1064.46 693.485 C 1053.69 697.779 1055.72 696.351 1055.39 685.178 z"/>
<path transform="translate(0,0)" fill="rgb(236,239,242)" d="M 922.779 1753.59 C 940.205 1757.7 957.943 1769.16 974.302 1776.11 C 992.823 1783.97 994.459 1788.38 997.784 1808.19 C 982.047 1800.83 918.097 1774.92 910.033 1766.59 C 914.73 1761.92 918.454 1758.75 922.779 1753.59 z"/>
<path transform="translate(0,0)" fill="rgb(217,114,31)" d="M 1014.36 945.498 C 1020.04 919.488 1027.39 906.572 1039.66 883.271 C 1044.69 873.705 1047.91 853.83 1049.65 842.883 C 1055.53 860.917 1062.59 884.181 1053.23 901.917 C 1042.25 922.732 1025.26 927.112 1016.31 950.791 C 1015.83 953.206 1016.18 952.478 1014.76 954.329 C 1013.62 951.178 1014.11 948.854 1014.36 945.498 z"/>
<path transform="translate(0,0)" fill="rgb(236,239,242)" d="M 924.794 1749.74 C 925.644 1748.44 926.968 1745.5 928.48 1745.11 C 933.464 1743.83 989.591 1770.66 996.37 1775.37 C 1005.08 1781.42 1008.53 1789.02 1010.14 1799.24 C 1011.45 1807.55 1012.64 1861.7 1011.05 1868.8 C 1008.84 1871.48 1009.55 1870.63 1005.24 1871.49 C 999.642 1866.83 1005.55 1816.78 1001.62 1804.92 C 998.585 1783.52 991.257 1777.65 972.01 1769.61 C 956.936 1763.31 940.967 1752.52 924.794 1749.74 z"/>
<path transform="translate(0,0)" fill="rgb(217,114,31)" d="M 1047.71 972.856 C 1049.35 974.571 1047.04 997.855 1046.57 1001.88 C 1044.91 1015.92 1036.39 1027.53 1028.92 1039 L 1027.94 1040.49 C 1026.65 1042.52 1026.87 1042.95 1024.92 1041.59 C 1007.5 1010.25 1027.68 993.945 1047.71 972.856 z"/>
<path transform="translate(0,0)" fill="rgb(217,114,31)" d="M 1051.39 437.676 C 1057.25 449.528 1059.69 458.307 1055.58 471.594 C 1048.15 495.609 1027.47 495.457 1017.31 510.251 C 1017.23 513.632 1015.43 521.623 1014.83 525.556 C 1013.66 515.299 1014.18 516.711 1015.02 507.134 L 1015.1 506.098 C 1017.17 500.109 1019.59 493.472 1023.33 488.289 C 1025.91 484.711 1030.93 479.813 1032.7 475.871 C 1039.32 461.089 1042.15 451.529 1051.39 437.676 z"/>
<path transform="translate(0,0)" fill="rgb(217,114,31)" d="M 1045.63 834.849 C 1048.52 838.093 1045.86 848.373 1044.92 853.998 C 1041.88 872.161 1034.55 890.839 1023.96 905.928 C 1023.63 906.405 1022.07 904.797 1022 904.734 C 1006.41 877.037 1030.01 854.526 1045.63 834.849 z"/>
<path transform="translate(0,0)" fill="rgb(217,114,31)" d="M 1045.07 492.844 C 1047.77 493.704 1046.81 496.389 1046.86 498.993 C 1047.22 517.915 1039.01 534.851 1026.03 548.281 C 1025.16 549.182 1024.66 548.352 1024.05 547.661 C 1017.2 533.058 1015.94 525.474 1020.59 509.704 C 1027.27 503.684 1036.97 498.619 1045.07 492.844 z"/>
<path transform="translate(0,0)" fill="rgb(217,114,31)" d="M 1048.9 1055.22 C 1048.98 1051.87 1048.42 1034.52 1053.27 1046.01 C 1071.87 1085.18 1034.3 1105.16 1015.64 1133.54 L 1017.08 1126.51 C 1018.34 1120.21 1022.14 1111.1 1025.76 1105.85 C 1036.01 1090.98 1043.77 1074.55 1048.06 1056.97 C 1048.24 1056.22 1048.51 1055.86 1048.9 1055.22 z"/>
<path transform="translate(0,0)" fill="rgb(217,114,31)" d="M 1045.65 553.769 C 1053.52 560.853 1037.33 598.389 1029.71 604.683 C 1027.09 606.844 1024.62 614.016 1021.01 610.877 C 1006.56 581.925 1026.99 570.89 1045.65 553.769 z"/>
<path transform="translate(0,0)" fill="rgb(217,114,31)" d="M 1046.33 1039.74 C 1050.27 1053.13 1031.55 1095.9 1021.39 1106.35 C 1021.09 1106.65 1019.85 1105.72 1019.7 1105.61 L 1018.98 1104.07 C 1005.55 1075.49 1030.47 1058.23 1046.33 1039.74 z"/>
<path transform="translate(0,0)" fill="rgb(217,114,31)" d="M 1014.45 577.886 C 1015.01 575.426 1015.61 572.975 1016.25 570.534 C 1023.81 542.136 1047.42 546.65 1049.53 499.647 C 1055.83 512.604 1059.71 519.712 1055.11 534.464 C 1049.17 553.498 1025.89 562.481 1016.88 577.949 L 1014.45 577.886 z"/>
<path transform="translate(0,0)" fill="rgb(217,114,31)" d="M 1045.74 917.914 C 1052.42 925.25 1026.84 981.03 1020.55 979.254 C 1018.61 976.324 1015.84 972.727 1016.02 969.017 C 1017.4 940.709 1029.22 935.332 1045.74 917.914 z"/>
<path transform="translate(0,0)" fill="rgb(236,239,242)" d="M 1142.59 1752.6 C 1145.15 1759.61 1143.37 1797.02 1140.33 1804.25 C 1132.1 1823.82 1099.9 1833.26 1080.92 1841.1 L 1017.73 1867.53 L 1016.46 1866.64 C 1018.46 1859.96 1109.63 1826.55 1123.05 1817.67 C 1148.89 1800.58 1133.3 1768.88 1139.59 1755.99 C 1140.1 1754.95 1141.77 1753.52 1142.59 1752.6 z"/>
<path transform="translate(0,0)" fill="rgb(217,114,31)" d="M 1015.4 1005.24 C 1019.77 982.136 1035.28 970.238 1043.73 948.417 C 1047.61 938.372 1047.85 933.243 1049.39 922.844 C 1051.41 927.281 1054.22 932.041 1055.68 936.596 C 1065.57 967.445 1024.74 980.462 1017.46 1007.86 C 1017.48 1008.93 1017.51 1009.49 1017.37 1010.56 L 1017.11 1012.51 C 1016.95 1013.79 1017.07 1015.82 1015.67 1016.47 C 1014.25 1015.05 1014.84 1007.25 1015.4 1005.24 z"/>
<path transform="translate(0,0)" fill="rgb(217,114,31)" d="M 1019.19 1058.07 C 1023.36 1050.27 1025.86 1049.1 1030.62 1042.37 C 1045.77 1020.98 1049.83 1012.16 1050.74 986.887 C 1056.03 998.536 1060.04 1009.3 1054.35 1021.6 C 1047.9 1035.55 1031.72 1050.52 1021.69 1062.32 C 1016.33 1071.01 1015.72 1075.01 1012.08 1084.15 C 1013.55 1075.08 1014.13 1065.94 1019.19 1058.07 z"/>
<path transform="translate(0,0)" fill="rgb(217,114,31)" d="M 1050.18 558.932 C 1055.12 563.791 1059.18 576.181 1057.3 583.004 C 1052.89 599.024 1037.86 614.98 1024.33 623.914 C 1022.82 624.525 1019.61 626.174 1018.15 625.722 C 1016.88 624.102 1023.06 616.394 1024.5 614.976 C 1035.34 604.267 1044.48 589.667 1048.73 574.987 C 1050.03 570.515 1049.76 563.712 1050.18 558.932 z"/>
<path transform="translate(0,0)" fill="rgb(217,114,31)" d="M 1053.2 801.843 C 1055.11 793.972 1055.94 795.11 1056.51 802.995 L 1056.23 805 C 1052.36 834.346 1027.95 844.655 1018.46 866.217 C 1017.91 868.851 1017.2 871.311 1016.63 873.946 L 1014.52 874.114 C 1015.69 868.478 1015.5 862.703 1016.83 856.792 C 1018.46 849.807 1020.21 844.391 1025 838.994 C 1025.46 838.517 1025.92 838.04 1026.39 837.562 C 1038.87 829.014 1047.88 815.871 1053.2 801.843 z"/>
<path transform="translate(0,0)" fill="rgb(236,239,242)" d="M 1468.4 505.173 C 1469.76 505.813 1473.2 507.252 1472.91 509.117 C 1470.19 511.132 1400.31 537.465 1392.2 540.492 C 1391.7 540.818 1391.11 541.302 1390.48 541.224 C 1390.01 541.165 1389.6 540.878 1389.38 540.458 C 1388.91 539.551 1388.92 536.802 1389.37 536.601 C 1407.44 528.506 1452.68 510.589 1468.4 505.173 z"/>
<path transform="translate(0,0)" fill="rgb(217,114,31)" d="M 1022.75 456.835 C 1026.77 459.715 1030.17 461.951 1034.1 465.027 C 1031.29 471.594 1030.19 474.119 1026.19 480.118 C 1013.51 495.136 1020.55 462.272 1022.75 456.835 z"/>
<path transform="translate(0,0)" fill="rgb(236,239,242)" d="M 1049.1 1213.9 C 1073.14 1221.91 1051.56 1232.33 1047.59 1229.42 C 1048.63 1223.07 1048.89 1220.23 1049.1 1213.9 z"/>
<path transform="translate(0,0)" fill="rgb(217,114,31)" d="M 1049.48 604.742 C 1057.14 614.52 1045.66 615.747 1038.49 618.87 C 1038.01 618.795 1037.92 618.908 1037.52 618.601 C 1037.39 617.485 1048 606.316 1049.48 604.742 z"/>
<path transform="translate(0,0)" fill="rgb(217,114,31)" d="M 1015.1 467.716 C 1014.97 464.63 1012.95 452.501 1017.38 453.505 C 1020.62 458.644 1019.14 461.491 1017.41 467.053 C 1017.26 467.879 1016.47 473.333 1015.34 474.249 C 1015.21 474.187 1015.07 474.124 1014.94 474.062 C 1014.27 473.249 1014.54 471.97 1014.65 471.025 C 1014.8 469.922 1014.95 468.819 1015.1 467.716 z"/>
<path transform="translate(0,0)" fill="rgb(236,239,242)" d="M 1079.59 1326.52 C 1083.77 1329 1090.15 1337.08 1092.55 1341.21 C 1082.31 1338.87 1082.14 1336.62 1079.59 1326.52 z"/>
<path transform="translate(0,0)" fill="rgb(236,239,242)" d="M 709.083 752.549 C 713.532 753.077 713.324 752.967 717.5 754.821 C 711.022 757.844 708.624 760.674 709.083 752.549 z"/>
<path transform="translate(0,0)" fill="rgb(100,47,22)" d="M 1016.63 873.946 C 1016.4 875.384 1016.3 881.067 1014.69 881.377 C 1013.25 880.1 1014.28 875.699 1014.52 874.114 L 1016.63 873.946 z"/>
<path transform="translate(0,0)" fill="rgb(154,66,20)" d="M 1014.45 577.886 L 1016.88 577.949 C 1016.45 579.385 1015.31 584.087 1014.35 585.113 L 1014.34 585.044 C 1014.61 584.46 1014.88 583.877 1015.16 583.293 L 1013.75 583.211 C 1013.94 581.412 1014.08 579.656 1014.45 577.886 z"/>
</svg>